<svg width="17" height="17" viewBox="0 0 17 17" fill="none" xmlns="http://www.w3.org/2000/svg">
<path d="M10.7881 8.50081L16.5062 2.78107C16.6607 2.63186 16.7839 2.45337 16.8687 2.25602C16.9535 2.05867 16.9981 1.84641 16.9999 1.63163C17.0018 1.41685 16.9609 1.20385 16.8795 1.00505C16.7982 0.806259 16.6781 0.625654 16.5262 0.473776C16.3743 0.321898 16.1937 0.201788 15.9949 0.120455C15.7962 0.0391221 15.5832 -0.00180531 15.3684 6.10742e-05C15.1536 0.00192746 14.9413 0.0465503 14.744 0.131326C14.5466 0.216101 14.3681 0.339331 14.2189 0.493826L8.49919 6.21194L2.78107 0.493826C2.63186 0.339331 2.45337 0.216101 2.25602 0.131326C2.05867 0.0465503 1.84641 0.00192746 1.63163 6.10742e-05C1.41685 -0.00180531 1.20385 0.0391221 1.00505 0.120455C0.806259 0.201788 0.625654 0.321898 0.473776 0.473776C0.321898 0.625654 0.201788 0.806259 0.120455 1.00505C0.0391221 1.20385 -0.00180531 1.41685 6.10742e-05 1.63163C0.00192746 1.84641 0.0465503 2.05867 0.131326 2.25602C0.216101 2.45337 0.339331 2.63186 0.493826 2.78107L6.21194 8.49919L0.493826 14.2189C0.339331 14.3681 0.216101 14.5466 0.131326 14.744C0.0465503 14.9413 0.00192746 15.1536 6.10742e-05 15.3684C-0.00180531 15.5832 0.0391221 15.7962 0.120455 15.9949C0.201788 16.1937 0.321898 16.3743 0.473776 16.5262C0.625654 16.6781 0.806259 16.7982 1.00505 16.8795C1.20385 16.9609 1.41685 17.0018 1.63163 16.9999C1.84641 16.9981 2.05867 16.9535 2.25602 16.8687C2.45337 16.7839 2.63186 16.6607 2.78107 16.5062L8.49919 10.7881L14.2189 16.5062C14.3681 16.6607 14.5466 16.7839 14.744 16.8687C14.9413 16.9535 15.1536 16.9981 15.3684 16.9999C15.5832 17.0018 15.7962 16.9609 15.9949 16.8795C16.1937 16.7982 16.3743 16.6781 16.5262 16.5262C16.6781 16.3743 16.7982 16.1937 16.8795 15.9949C16.9609 15.7962 17.0018 15.5832 16.9999 15.3684C16.9981 15.1536 16.9535 14.9413 16.8687 14.744C16.7839 14.5466 16.6607 14.3681 16.5062 14.2189L10.7881 8.49919V8.50081Z" fill="url(#paint0_linear)"/>
<defs>
<linearGradient id="paint0_linear" x1="8.5" y1="0" x2="8.5" y2="17" gradientUnits="userSpaceOnUse">
<stop stop-color="#F4FAFB"/>
<stop offset="1" stop-color="#E7ECED"/>
</linearGradient>
</defs>
</svg>
