<svg width="8" height="12" viewBox="0 0 8 12" fill="none" xmlns="http://www.w3.org/2000/svg">
<path d="M0.571429 0H7.42857C7.58012 0 7.72547 0.126428 7.83263 0.351472C7.9398 0.576516 8 0.88174 8 1.2C8 1.51826 7.9398 1.82348 7.83263 2.04853C7.72547 2.27357 7.58012 2.4 7.42857 2.4H0.571429C0.419876 2.4 0.274531 2.27357 0.167368 2.04853C0.0602039 1.82348 0 1.51826 0 1.2C0 0.88174 0.0602039 0.576516 0.167368 0.351472C0.274531 0.126428 0.419876 0 0.571429 0V0ZM0.571429 9.6H7.42857C7.58012 9.6 7.72547 9.72643 7.83263 9.95147C7.9398 10.1765 8 10.4817 8 10.8C8 11.1183 7.9398 11.4235 7.83263 11.6485C7.72547 11.8736 7.58012 12 7.42857 12H0.571429C0.419876 12 0.274531 11.8736 0.167368 11.6485C0.0602039 11.4235 0 11.1183 0 10.8C0 10.4817 0.0602039 10.1765 0.167368 9.95147C0.274531 9.72643 0.419876 9.6 0.571429 9.6V9.6ZM0.571429 4.8H7.42857C7.58012 4.8 7.72547 4.92643 7.83263 5.15147C7.9398 5.37652 8 5.68174 8 6C8 6.31826 7.9398 6.62348 7.83263 6.84853C7.72547 7.07357 7.58012 7.2 7.42857 7.2H0.571429C0.419876 7.2 0.274531 7.07357 0.167368 6.84853C0.0602039 6.62348 0 6.31826 0 6C0 5.68174 0.0602039 5.37652 0.167368 5.15147C0.274531 4.92643 0.419876 4.8 0.571429 4.8V4.8Z" fill="#F4FAFB"/>
</svg>
