<svg width="22" height="12" viewBox="0 0 22 12" fill="none" xmlns="http://www.w3.org/2000/svg">
<path d="M14.7009 2.92717L11.1314 6.31287C10.961 6.46901 10.7327 6.5554 10.4958 6.55345C10.2589 6.5515 10.0322 6.46135 9.86465 6.30243C9.69711 6.14351 9.60207 5.92853 9.60001 5.70379C9.59795 5.47905 9.68904 5.26253 9.85364 5.10087L14.9657 0.252029C15.0494 0.172157 15.149 0.108771 15.2586 0.0655189C15.3682 0.0222665 15.4858 0 15.6046 0C15.7233 0 15.8409 0.0222665 15.9505 0.0655189C16.0602 0.108771 16.1597 0.172157 16.2435 0.252029L21.3555 5.10087C21.516 5.26326 21.6037 5.47852 21.5999 5.7011C21.596 5.92369 21.5011 6.13614 21.3351 6.29349C21.1691 6.45085 20.945 6.54077 20.7103 6.54423C20.4757 6.54768 20.2488 6.4644 20.0777 6.31201L16.5082 2.92631V11.1429C16.5082 11.3702 16.413 11.5882 16.2436 11.7489C16.0741 11.9097 15.8442 12 15.6046 12C15.3649 12 15.1351 11.9097 14.9656 11.7489C14.7961 11.5882 14.7009 11.3702 14.7009 11.1429V2.92631V2.92717Z" fill="#F4FAFB"/>
<path d="M0.6 0H7.8C7.95913 0 8.11174 0.126428 8.22426 0.351472C8.33679 0.576516 8.4 0.88174 8.4 1.2C8.4 1.51826 8.33679 1.82348 8.22426 2.04853C8.11174 2.27357 7.95913 2.4 7.8 2.4H0.6C0.44087 2.4 0.288258 2.27357 0.175736 2.04853C0.0632141 1.82348 0 1.51826 0 1.2C0 0.88174 0.0632141 0.576516 0.175736 0.351472C0.288258 0.126428 0.44087 0 0.6 0V0ZM0.6 9.6H7.8C7.95913 9.6 8.11174 9.72643 8.22426 9.95147C8.33679 10.1765 8.4 10.4817 8.4 10.8C8.4 11.1183 8.33679 11.4235 8.22426 11.6485C8.11174 11.8736 7.95913 12 7.8 12H0.6C0.44087 12 0.288258 11.8736 0.175736 11.6485C0.0632141 11.4235 0 11.1183 0 10.8C0 10.4817 0.0632141 10.1765 0.175736 9.95147C0.288258 9.72643 0.44087 9.6 0.6 9.6V9.6ZM0.6 4.8H7.8C7.95913 4.8 8.11174 4.92643 8.22426 5.15147C8.33679 5.37652 8.4 5.68174 8.4 6C8.4 6.31826 8.33679 6.62348 8.22426 6.84853C8.11174 7.07357 7.95913 7.2 7.8 7.2H0.6C0.44087 7.2 0.288258 7.07357 0.175736 6.84853C0.0632141 6.62348 0 6.31826 0 6C0 5.68174 0.0632141 5.37652 0.175736 5.15147C0.288258 4.92643 0.44087 4.8 0.6 4.8V4.8Z" fill="#F4FAFB"/>
</svg>
