<svg width="22" height="12" viewBox="0 0 22 12" fill="none" xmlns="http://www.w3.org/2000/svg">
<path d="M14.7009 9.07283L11.1314 5.68713C10.961 5.53099 10.7327 5.4446 10.4958 5.44655C10.2589 5.4485 10.0322 5.53865 9.86465 5.69757C9.69711 5.85649 9.60207 6.07147 9.60001 6.29621C9.59795 6.52095 9.68904 6.73747 9.85364 6.89913L14.9657 11.748C15.0494 11.8278 15.149 11.8912 15.2586 11.9345C15.3682 11.9777 15.4858 12 15.6046 12C15.7233 12 15.8409 11.9777 15.9505 11.9345C16.0602 11.8912 16.1597 11.8278 16.2435 11.748L21.3555 6.89913C21.516 6.73674 21.6037 6.52148 21.5999 6.2989C21.596 6.07631 21.5011 5.86386 21.3351 5.70651C21.1691 5.54915 20.945 5.45923 20.7103 5.45577C20.4757 5.45232 20.2488 5.5356 20.0777 5.68799L16.5082 9.07369V0.85714C16.5082 0.629813 16.413 0.411796 16.2436 0.251051C16.0741 0.0903055 15.8442 -3.23493e-07 15.6046 -3.23493e-07C15.3649 -3.23493e-07 15.1351 0.0903055 14.9656 0.251051C14.7961 0.411796 14.7009 0.629813 14.7009 0.85714V9.07369V9.07283Z" fill="#1E7A8E"/>
<path d="M0.6 12H7.8C7.95913 12 8.11174 11.8736 8.22426 11.6485C8.33679 11.4235 8.4 11.1183 8.4 10.8C8.4 10.4817 8.33679 10.1765 8.22426 9.95147C8.11174 9.72643 7.95913 9.6 7.8 9.6H0.6C0.44087 9.6 0.288258 9.72643 0.175736 9.95147C0.0632141 10.1765 0 10.4817 0 10.8C0 11.1183 0.0632141 11.4235 0.175736 11.6485C0.288258 11.8736 0.44087 12 0.6 12V12ZM0.6 2.4H7.8C7.95913 2.4 8.11174 2.27357 8.22426 2.04853C8.33679 1.82348 8.4 1.51826 8.4 1.2C8.4 0.88174 8.33679 0.576515 8.22426 0.351472C8.11174 0.126428 7.95913 -4.76837e-07 7.8 -4.76837e-07H0.6C0.44087 -4.76837e-07 0.288258 0.126428 0.175736 0.351472C0.0632141 0.576515 0 0.88174 0 1.2C0 1.51826 0.0632141 1.82348 0.175736 2.04853C0.288258 2.27357 0.44087 2.4 0.6 2.4V2.4ZM0.6 7.2H7.8C7.95913 7.2 8.11174 7.07357 8.22426 6.84853C8.33679 6.62348 8.4 6.31826 8.4 6C8.4 5.68174 8.33679 5.37652 8.22426 5.15147C8.11174 4.92643 7.95913 4.8 7.8 4.8H0.6C0.44087 4.8 0.288258 4.92643 0.175736 5.15147C0.0632141 5.37652 0 5.68174 0 6C0 6.31826 0.0632141 6.62348 0.175736 6.84853C0.288258 7.07357 0.44087 7.2 0.6 7.2V7.2Z" fill="#1E7A8E"/>
</svg>
